<?xml version="1.0" encoding="UTF-8" standalone="no"?>
<!-- Created with Inkscape (http://www.inkscape.org/) -->

<svg
   xmlns:dc="http://purl.org/dc/elements/1.1/"
   xmlns:cc="http://creativecommons.org/ns#"
   xmlns:rdf="http://www.w3.org/1999/02/22-rdf-syntax-ns#"
   xmlns:svg="http://www.w3.org/2000/svg"
   xmlns="http://www.w3.org/2000/svg"
   xmlns:xlink="http://www.w3.org/1999/xlink"
   xmlns:sodipodi="http://sodipodi.sourceforge.net/DTD/sodipodi-0.dtd"
   xmlns:inkscape="http://www.inkscape.org/namespaces/inkscape"
   id="svg2"
   version="1.1"
   inkscape:version="0.91 r13725"
   width="128"
   height="128"
   sodipodi:docname="folder-atom.svg">
  <metadata
     id="metadata8">
    <rdf:RDF>
      <cc:Work
         rdf:about="">
        <dc:format>image/svg+xml</dc:format>
        <dc:type
           rdf:resource="http://purl.org/dc/dcmitype/StillImage" />
        <dc:title></dc:title>
      </cc:Work>
    </rdf:RDF>
  </metadata>
  <defs
     id="defs6">
    <linearGradient
       id="linearGradient4535">
      <stop
         id="stop4537"
         offset="0"
         style="stop-color:#000000;stop-opacity:1" />
      <stop
         id="stop4539"
         offset="1"
         style="stop-color:#000000;stop-opacity:0" />
    </linearGradient>
    <linearGradient
       id="linearGradient3788-5">
      <stop
         style="stop-color:#000000;stop-opacity:0.50980395;"
         offset="0"
         id="stop3790-2" />
      <stop
         style="stop-color:#000000;stop-opacity:0.47058824"
         offset="1"
         id="stop3792-5" />
    </linearGradient>
    <linearGradient
       id="linearGradient3927">
      <stop
         id="stop3929"
         offset="0"
         style="stop-color:#f1f2f3;stop-opacity:1;" />
      <stop
         id="stop3931"
         offset="1"
         style="stop-color:#e4e5e7;stop-opacity:1;" />
    </linearGradient>
    <linearGradient
       id="linearGradient3782">
      <stop
         style="stop-color:#ffffff;stop-opacity:1;"
         offset="0"
         id="stop3784" />
      <stop
         style="stop-color:#e4e5e7;stop-opacity:1;"
         offset="1"
         id="stop3786" />
    </linearGradient>
    <linearGradient
       id="linearGradient3937-5-94-7">
      <stop
         id="stop3939-6-8-6"
         offset="0"
         style="stop-color:#9c9d9e;stop-opacity:1;" />
      <stop
         id="stop3941-3-5-8"
         offset="1"
         style="stop-color:#bbbcbd;stop-opacity:1;" />
    </linearGradient>
    <linearGradient
       y2="34"
       x2="24"
       y1="-7.9999971"
       x1="24.000006"
       gradientTransform="translate(-86.000004,54.999997)"
       gradientUnits="userSpaceOnUse"
       id="linearGradient3493-0"
       xlink:href="#linearGradient3937-5-94-7"
       inkscape:collect="always" />
    <radialGradient
       inkscape:collect="always"
       xlink:href="#linearGradient4303"
       id="radialGradient4309-7"
       cx="31"
       cy="52.599998"
       fx="31"
       fy="52.599998"
       r="31"
       gradientTransform="matrix(4.2258064,0,0,0.12903193,-66.999996,104.41293)"
       gradientUnits="userSpaceOnUse" />
    <linearGradient
       inkscape:collect="always"
       id="linearGradient4303">
      <stop
         style="stop-color:#000000;stop-opacity:0.19018404"
         offset="0"
         id="stop4305" />
      <stop
         id="stop4311"
         offset="0.72671854"
         style="stop-color:#000000;stop-opacity:0.05882353" />
      <stop
         style="stop-color:#000000;stop-opacity:0;"
         offset="1"
         id="stop4307" />
    </linearGradient>
    <linearGradient
       gradientTransform="matrix(2.7555557,0,0,2.5806451,-1.7555551,-66.80645)"
       gradientUnits="userSpaceOnUse"
       y2="13.1"
       x2="23.5"
       y1="10.775"
       x1="23.5"
       id="linearGradient3794"
       xlink:href="#linearGradient3788-5"
       inkscape:collect="always" />
    <linearGradient
       gradientTransform="matrix(3.128205,0,0,3.12,-19.897436,-124.24)"
       gradientUnits="userSpaceOnUse"
       y2="52"
       x2="25"
       y1="27"
       x1="25"
       id="linearGradient3965"
       xlink:href="#linearGradient3782"
       inkscape:collect="always" />
    <linearGradient
       gradientTransform="matrix(3.2432441,0,0,3.3043477,-13.21622,-91.869567)"
       gradientUnits="userSpaceOnUse"
       y2="39"
       x2="25"
       y1="16"
       x1="25"
       id="linearGradient3933"
       xlink:href="#linearGradient3927"
       inkscape:collect="always" />
    <linearGradient
       gradientTransform="matrix(2.75,0,0,2,-3,-63)"
       gradientUnits="userSpaceOnUse"
       y2="9"
       x2="22"
       y1="11"
       x1="22"
       id="linearGradient3835"
       xlink:href="#linearGradient4535"
       inkscape:collect="always" />
    <linearGradient
       gradientUnits="userSpaceOnUse"
       y2="-4"
       x2="13"
       y1="-4"
       x1="9"
       id="linearGradient3936"
       xlink:href="#linearGradient3930"
       inkscape:collect="always"
       gradientTransform="translate(3,-45)" />
    <linearGradient
       id="linearGradient3930"
       inkscape:collect="always">
      <stop
         id="stop3932"
         offset="0"
         style="stop-color:#ffffff;stop-opacity:1;" />
      <stop
         id="stop3934"
         offset="1"
         style="stop-color:#ffffff;stop-opacity:0;" />
    </linearGradient>
    <linearGradient
       inkscape:collect="always"
       xlink:href="#linearGradient3930"
       id="linearGradient3953"
       gradientUnits="userSpaceOnUse"
       x1="65"
       y1="-4"
       x2="69"
       y2="-4"
       gradientTransform="matrix(-1,0,0,1,123,-45)" />
    <linearGradient
       inkscape:collect="always"
       xlink:href="#linearGradient3937-5-94-7"
       id="linearGradient4420"
       x1="0.17598382"
       y1="60.10754"
       x2="131.01167"
       y2="60.10754"
       gradientUnits="userSpaceOnUse" />
    <linearGradient
       inkscape:collect="always"
       xlink:href="#linearGradient3937-5-94-7"
       id="linearGradient4430"
       x1="58.5"
       y1="61"
       x2="73.5"
       y2="61"
       gradientUnits="userSpaceOnUse" />
    <linearGradient
       inkscape:collect="always"
       xlink:href="#linearGradient3937-5-94-7"
       id="linearGradient4438"
       x1="58"
       y1="61"
       x2="74"
       y2="61"
       gradientUnits="userSpaceOnUse" />
  </defs>
  <sodipodi:namedview
     pagecolor="#ffffff"
     bordercolor="#666666"
     borderopacity="1"
     objecttolerance="10"
     gridtolerance="10"
     guidetolerance="10"
     inkscape:pageopacity="0"
     inkscape:pageshadow="2"
     inkscape:window-width="1920"
     inkscape:window-height="1020"
     id="namedview4"
     showgrid="true"
     inkscape:zoom="2"
     inkscape:cx="-121.85449"
     inkscape:cy="84.119867"
     inkscape:window-x="0"
     inkscape:window-y="32"
     inkscape:window-maximized="1"
     inkscape:current-layer="layer2"
     inkscape:object-paths="true"
     inkscape:snap-intersection-paths="true"
     inkscape:snap-bbox="true"
     inkscape:bbox-paths="true"
     inkscape:bbox-nodes="true"
     inkscape:object-nodes="true"
     showguides="false"
     inkscape:snap-nodes="true"
     inkscape:snap-object-midpoints="true">
    <inkscape:grid
       type="xygrid"
       id="grid2987" />
  </sodipodi:namedview>
  <g
     inkscape:groupmode="layer"
     id="layer3"
     inkscape:label="folder">
    <g
       transform="translate(4.9999999e-6,3.7670136e-6)"
       id="g4225">
      <ellipse
         cx="64"
         cy="111.2"
         rx="62"
         ry="3.9999993"
         id="path4293-4"
         style="display:inline;opacity:1;fill:url(#radialGradient4309-7);fill-opacity:1;stroke:none;stroke-width:1.20000005;stroke-linecap:butt;stroke-linejoin:miter;stroke-miterlimit:4;stroke-dasharray:none;stroke-dashoffset:0;stroke-opacity:1" />
      <g
         id="layer4"
         inkscape:label="Ebene#1"
         style="display:inline"
         transform="translate(1,72)">
        <g
           id="g4075"
           transform="translate(0,1)">
          <path
             sodipodi:nodetypes="sscsssssssscsss"
             inkscape:connector-curvature="0"
             style="fill:#000000;fill-opacity:0.65882353;stroke:#000000;stroke-width:0;stroke-miterlimit:4;stroke-dasharray:none;stroke-opacity:1"
             d="m 17,-59 c -1.108,0 -2,0.892 -2,2 l 0,6 -6,0 c -1.108,0 -2,0.892 -2,2 l 0,10 c 0,1.108 0.892,2 2,2 l 108,0 c 1.108,0 2,-0.892 2,-2 l 0,-10 c 0,-1.108 -0.892,-2 -2,-2 l -62,0 0,-6 c 0,-1.108 -0.892,-2 -2,-2 z"
             id="rect3967" />
          <path
             style="fill:#8b8b8d;fill-opacity:1;stroke:#000000;stroke-width:0;stroke-miterlimit:4;stroke-dasharray:none;stroke-opacity:1"
             d="M 18 15 C 17.479564 15 17 15.45973 17 16 L 17 23 L 10 23 C 9.446 23 9 23.446 9 24 L 9 34 C 9 34.554 9.446 35 10 35 L 118 35 C 118.554 35 119 34.554 119 34 L 119 24 C 119 23.446 118.554 23 118 23 L 55 23 L 55 16 C 55.01074 15.45094 54.512693 15 54 15 L 18 15 z "
             transform="translate(-1.000005,-73.000004)"
             id="rect3969" />
          <rect
             ry="2"
             rx="2"
             y="-41"
             x="1"
             height="80"
             width="124"
             id="rect3915"
             style="fill:url(#linearGradient3794);fill-opacity:1;stroke:#000000;stroke-width:0;stroke-miterlimit:4;stroke-dasharray:none;stroke-opacity:1" />
          <rect
             ry="1"
             y="-40"
             x="2"
             height="78"
             width="122"
             id="rect3957"
             style="fill:url(#linearGradient3965);fill-opacity:1;stroke:#000000;stroke-width:0;stroke-miterlimit:4;stroke-dasharray:none;stroke-opacity:1"
             rx="1" />
          <rect
             ry="0"
             rx="0"
             y="-39"
             x="3"
             height="76"
             width="120"
             id="rect3925"
             style="fill:url(#linearGradient3933);fill-opacity:1;stroke:#000000;stroke-width:0;stroke-miterlimit:4;stroke-dasharray:none;stroke-opacity:1" />
          <rect
             style="opacity:0.17300002;fill:url(#linearGradient3835);fill-opacity:1;stroke:#102b68;stroke-width:0;stroke-linecap:butt;stroke-linejoin:miter;stroke-miterlimit:4;stroke-dasharray:none;stroke-dashoffset:0;stroke-opacity:1"
             id="rect3827"
             width="110"
             height="4"
             x="8"
             y="-45"
             ry="0" />
          <path
             sodipodi:nodetypes="sscsscsss"
             style="opacity:0.15;fill:#ffffff;fill-opacity:1;stroke:#767779;stroke-width:0;stroke-linecap:butt;stroke-linejoin:miter;stroke-miterlimit:4;stroke-dasharray:none;stroke-dashoffset:0;stroke-opacity:1"
             d="m 17,-58 c -0.554,0 -1,0.446 -1,1 l 0,1 c 0,-0.554 0.446,-1 1,-1 l 36,0 c 0.554,0 1,0.446 1,1 l 0,-1 c 0,-0.554 -0.446,-1 -1,-1 z"
             id="rect3891"
             inkscape:connector-curvature="0" />
          <path
             style="display:inline;opacity:0.15;fill:url(#linearGradient3936);fill-opacity:1;stroke:#767779;stroke-width:0;stroke-linecap:butt;stroke-linejoin:miter;stroke-miterlimit:4;stroke-dasharray:none;stroke-dashoffset:0;stroke-opacity:1"
             d="m 9,-50 c -0.554,0 -1,0.446 -1,1 l 0,1 c 0,-0.554 0.446,-1 1,-1 l 7,0 0,-1 z"
             id="rect3891-8"
             inkscape:connector-curvature="0"
             sodipodi:nodetypes="sscsccs" />
          <path
             style="display:inline;opacity:0.15;fill:url(#linearGradient3953);fill-opacity:1;stroke:#767779;stroke-width:0;stroke-linecap:butt;stroke-linejoin:miter;stroke-miterlimit:4;stroke-dasharray:none;stroke-dashoffset:0;stroke-opacity:1"
             d="m 117,-50 c 0.554,0 1,0.446 1,1 l 0,1 c 0,-0.554 -0.446,-1 -1,-1 l -63,0 0,-1 z"
             id="rect3891-8-7"
             inkscape:connector-curvature="0"
             sodipodi:nodetypes="sscsccs" />
        </g>
      </g>
    </g>
  </g>
  <g
     inkscape:groupmode="layer"
     id="layer2"
     inkscape:label="icon">
    <path
       id="rect4605-2-2-0"
       d="m -77.999995,-13.600001 3.1e-5,43.999996 37.99997,0 0,-28.999991 -1,0 4e-5,27.999991 -36.00005,0 -4.1e-5,-41.999996 21.00005,5e-6 0,-1 z"
       style="display:inline;fill:#ffffff;fill-opacity:1;stroke:#000000;stroke-width:0;stroke-miterlimit:4;stroke-dasharray:none;stroke-opacity:1"
       inkscape:connector-curvature="0"
       sodipodi:nodetypes="ccccccccccc" />
    <path
       sodipodi:nodetypes="ccccc"
       inkscape:connector-curvature="0"
       id="rect4624-8-4-7"
       d="m -55,-12 0,-1.6 15.000006,14.999995 -1.6,0 z"
       style="display:inline;fill:#ffffff;fill-opacity:1;stroke:#000000;stroke-width:0;stroke-miterlimit:4;stroke-opacity:1" />
    <path
       id="rect4605-2-2"
       d="m -77,-13.000005 3.1e-5,43.999996 37.999965,0 0,-28.999991 -1,0 5e-5,27.999991 -36.000055,0 -4.1e-5,-41.999996 L -55,-12 l 0,-1 z"
       style="display:inline;fill:#767779;fill-opacity:1;stroke:#000000;stroke-width:0;stroke-miterlimit:4;stroke-dasharray:none;stroke-opacity:1"
       inkscape:connector-curvature="0"
       sodipodi:nodetypes="ccccccccccc" />
    <rect
       y="33"
       x="-35"
       height="15.999989"
       width="0.99995524"
       id="rect4618-1-0"
       style="display:inline;fill:#767779;fill-opacity:1;stroke:#000000;stroke-width:0;stroke-miterlimit:4;stroke-dasharray:none;stroke-opacity:1" />
    <rect
       y="47.999989"
       x="-34.000038"
       height="0.99999869"
       width="13.999993"
       id="rect4620-5-9"
       style="display:inline;fill:#767779;fill-opacity:1;stroke:#000000;stroke-width:0;stroke-miterlimit:4;stroke-dasharray:none;stroke-opacity:1" />
    <path
       sodipodi:nodetypes="ccccc"
       inkscape:connector-curvature="0"
       id="rect4624-8-4"
       d="m -52.500007,-12.899994 0,-1.6 15.000006,14.99999504 -1.6,0 z"
       style="display:inline;fill:#767779;fill-opacity:1;stroke:#000000;stroke-width:0;stroke-miterlimit:4;stroke-opacity:1" />
    <path
       style="display:inline;fill:url(#linearGradient3493-0);fill-opacity:1.0;stroke:#000000;stroke-width:0;stroke-miterlimit:4;stroke-dasharray:none;stroke-opacity:1"
       d="m -67.999989,47.000004 -1.4e-5,41.999991 7,0 28.999975,0 3e-5,-26.999991 -14.999996,0 -2.2e-5,-15 z"
       id="rect4632-2-0"
       inkscape:connector-curvature="0"
       sodipodi:nodetypes="cccccccc" />
    <g
       id="g4336"
       transform="matrix(0.50002864,0,0,0.50002864,31.99811,42.498253)"
       style="stroke:url(#linearGradient4420)">
      <path
         id="path4322"
         style="fill:none;stroke:url(#linearGradient4420);stroke-width:5;stroke-linecap:round"
         d="M 103.96875,29.43727 C 106.08143,18.684552 104.89996,10.523975 99.90625,7.2810201 98.241679,6.2000351 96.24602,5.7270015 94,5.8122701 81.871494,6.2727205 62.301679,22.972344 46.3125,47.59352 27.362362,76.774173 20.627996,106.01897 31.28125,112.93727 c 5.056946,3.28402 13.115147,0.95604 22.21875,-5.53125"
         inkscape:connector-curvature="0" />
      <path
         id="path4324"
         style="fill:none;stroke:url(#linearGradient4420);stroke-width:5;stroke-linecap:round"
         d="m 113.6875,77.15602 c 8.99437,-3.489189 14.52504,-8.265012 14.8125,-13.75 0.6648,-12.685141 -26.94124,-24.429026 -61.6875,-26.25 -3.257461,-0.170716 -6.460588,-0.260544 -9.59375,-0.25 -30.287234,0.101927 -53.9287749,8.410341 -54.53125,19.90625 -0.286892,5.474225 4.7004836,10.782383 13.25,15.1875"
         inkscape:connector-curvature="0" />
      <path
         id="path4326"
         style="fill:none;stroke:url(#linearGradient4420);stroke-width:5;stroke-linecap:round"
         d="M 57,10.53102 C 50.846125,5.4251295 45.074552,2.683237 40.4375,3.0310201 39.20289,3.123617 38.061068,3.4278792 37,3.9685201 25.681946,9.7353567 29.297632,39.560643 45.09375,70.56227 c 15.796118,31.00163 37.775696,51.45434 49.09375,45.6875 10.8844,-5.54588 7.94666,-33.337754 -6.34375,-63.03125"
         inkscape:connector-curvature="0" />
      <path
         id="path4328"
         style="fill:url(#linearGradient4438);stroke:url(#linearGradient4430);stroke-opacity:1;fill-opacity:1.0"
         d="m 73.5,61 a 7.5,7.5 0 0 1 -15,0 7.5,7.5 0 1 1 15,0 z"
         inkscape:connector-curvature="0" />
    </g>
  </g>
</svg>
